<mxfile host="65bd71144e">
    <diagram id="6imPjK0WeU0khrKTVBG_" name="第 1 页">
        <mxGraphModel dx="638" dy="616" grid="1" gridSize="10" guides="1" tooltips="1" connect="1" arrows="1" fold="1" page="1" pageScale="1" pageWidth="827" pageHeight="1169" math="0" shadow="0">
            <root>
                <mxCell id="0"/>
                <mxCell id="1" parent="0"/>
                <mxCell id="10" value="区&lt;br&gt;1M = 64 * 16k" style="rounded=0;whiteSpace=wrap;html=1;verticalAlign=bottom;" parent="1" vertex="1">
                    <mxGeometry x="369" y="270" width="90" height="210" as="geometry"/>
                </mxCell>
                <mxCell id="2" value=".ibd" style="rounded=0;whiteSpace=wrap;html=1;" parent="1" vertex="1">
                    <mxGeometry x="50" y="80" width="80" height="40" as="geometry"/>
                </mxCell>
                <mxCell id="3" value="非叶子节点段&lt;br&gt;(索引)" style="rounded=0;whiteSpace=wrap;html=1;" parent="1" vertex="1">
                    <mxGeometry x="160" y="70" width="120" height="70" as="geometry"/>
                </mxCell>
                <mxCell id="4" value="叶子节点段&lt;br&gt;(数据)" style="rounded=0;whiteSpace=wrap;html=1;" parent="1" vertex="1">
                    <mxGeometry x="160" y="140" width="120" height="70" as="geometry"/>
                </mxCell>
                <mxCell id="5" value="区组 &lt;br&gt;256M = 256 * 1M" style="rounded=0;whiteSpace=wrap;html=1;verticalAlign=bottom;" parent="1" vertex="1">
                    <mxGeometry x="140" y="240" width="110" height="270" as="geometry"/>
                </mxCell>
                <mxCell id="6" value="区 1M" style="rounded=0;whiteSpace=wrap;html=1;" parent="1" vertex="1">
                    <mxGeometry x="150" y="260" width="90" height="30" as="geometry"/>
                </mxCell>
                <mxCell id="7" value="区 1M" style="rounded=0;whiteSpace=wrap;html=1;" parent="1" vertex="1">
                    <mxGeometry x="150" y="300" width="90" height="30" as="geometry"/>
                </mxCell>
                <mxCell id="8" value="页 16k" style="rounded=0;whiteSpace=wrap;html=1;" parent="1" vertex="1">
                    <mxGeometry x="379" y="280" width="70" height="30" as="geometry"/>
                </mxCell>
                <mxCell id="9" value="页 16k" style="rounded=0;whiteSpace=wrap;html=1;" parent="1" vertex="1">
                    <mxGeometry x="379" y="320" width="70" height="30" as="geometry"/>
                </mxCell>
                <mxCell id="11" value="" style="endArrow=none;dashed=1;html=1;dashPattern=1 3;strokeWidth=2;entryX=1;entryY=0;entryDx=0;entryDy=0;exitX=0;exitY=0;exitDx=0;exitDy=0;" parent="1" source="10" target="6" edge="1">
                    <mxGeometry width="50" height="50" relative="1" as="geometry">
                        <mxPoint x="100" y="550" as="sourcePoint"/>
                        <mxPoint x="150" y="500" as="targetPoint"/>
                    </mxGeometry>
                </mxCell>
                <mxCell id="12" value="" style="endArrow=none;dashed=1;html=1;dashPattern=1 3;strokeWidth=2;entryX=1;entryY=1;entryDx=0;entryDy=0;exitX=0;exitY=1;exitDx=0;exitDy=0;" parent="1" source="10" target="6" edge="1">
                    <mxGeometry width="50" height="50" relative="1" as="geometry">
                        <mxPoint x="220" y="270" as="sourcePoint"/>
                        <mxPoint x="170" y="290" as="targetPoint"/>
                    </mxGeometry>
                </mxCell>
                <mxCell id="13" value="区 1M" style="rounded=0;whiteSpace=wrap;html=1;" parent="1" vertex="1">
                    <mxGeometry x="150" y="340" width="90" height="30" as="geometry"/>
                </mxCell>
                <mxCell id="14" value="区 1M" style="rounded=0;whiteSpace=wrap;html=1;" parent="1" vertex="1">
                    <mxGeometry x="150" y="380" width="90" height="30" as="geometry"/>
                </mxCell>
                <mxCell id="19" value="页 16k" style="rounded=0;whiteSpace=wrap;html=1;verticalAlign=bottom;fillColor=#f0a30a;fontColor=#000000;strokeColor=#BD7000;" parent="1" vertex="1">
                    <mxGeometry x="580" y="260" width="120" height="220" as="geometry"/>
                </mxCell>
                <mxCell id="20" value="File Header" style="rounded=0;whiteSpace=wrap;html=1;fillColor=#e51400;fontColor=#ffffff;strokeColor=#B20000;" parent="1" vertex="1">
                    <mxGeometry x="590" y="270" width="100" height="20" as="geometry"/>
                </mxCell>
                <mxCell id="21" value="File Tailer" style="rounded=0;whiteSpace=wrap;html=1;fillColor=#e51400;fontColor=#ffffff;strokeColor=#B20000;" parent="1" vertex="1">
                    <mxGeometry x="590" y="440" width="100" height="20" as="geometry"/>
                </mxCell>
                <mxCell id="22" value="行 &amp;lt;= 8k" style="rounded=0;whiteSpace=wrap;html=1;verticalAlign=bottom;align=right;" parent="1" vertex="1">
                    <mxGeometry x="80" y="727.5" width="540" height="45" as="geometry"/>
                </mxCell>
                <mxCell id="23" value="数据行" style="rounded=0;whiteSpace=wrap;html=1;" parent="1" vertex="1">
                    <mxGeometry x="590" y="352.5" width="100" height="20" as="geometry"/>
                </mxCell>
                <mxCell id="24" value="数据行" style="rounded=0;whiteSpace=wrap;html=1;" parent="1" vertex="1">
                    <mxGeometry x="590" y="377.5" width="100" height="20" as="geometry"/>
                </mxCell>
                <mxCell id="27" value="创建表时，生成区组的第一个区，称为碎片区，包含6个页，其中2个空闲页，碎片区最多包含32个页" style="shape=callout;whiteSpace=wrap;html=1;perimeter=calloutPerimeter;size=10;position=0.48;position2=0.5;" parent="1" vertex="1">
                    <mxGeometry x="327" y="170" width="173.5" height="80" as="geometry"/>
                </mxCell>
                <mxCell id="28" value="" style="endArrow=none;dashed=1;html=1;dashPattern=1 3;strokeWidth=2;entryX=1;entryY=0;entryDx=0;entryDy=0;exitX=0;exitY=0;exitDx=0;exitDy=0;" parent="1" source="3" target="2" edge="1">
                    <mxGeometry width="50" height="50" relative="1" as="geometry">
                        <mxPoint x="110" y="310" as="sourcePoint"/>
                        <mxPoint x="160" y="260" as="targetPoint"/>
                    </mxGeometry>
                </mxCell>
                <mxCell id="29" value="" style="endArrow=none;dashed=1;html=1;dashPattern=1 3;strokeWidth=2;entryX=0;entryY=1;entryDx=0;entryDy=0;exitX=1;exitY=1;exitDx=0;exitDy=0;" parent="1" source="2" target="4" edge="1">
                    <mxGeometry width="50" height="50" relative="1" as="geometry">
                        <mxPoint x="170" y="80" as="sourcePoint"/>
                        <mxPoint x="140" y="90" as="targetPoint"/>
                    </mxGeometry>
                </mxCell>
                <mxCell id="30" value="" style="endArrow=none;dashed=1;html=1;dashPattern=1 3;strokeWidth=2;entryX=1;entryY=0;entryDx=0;entryDy=0;exitX=0;exitY=0;exitDx=0;exitDy=0;" parent="1" source="19" target="8" edge="1">
                    <mxGeometry width="50" height="50" relative="1" as="geometry">
                        <mxPoint x="250" y="600" as="sourcePoint"/>
                        <mxPoint x="300" y="550" as="targetPoint"/>
                    </mxGeometry>
                </mxCell>
                <mxCell id="31" value="" style="endArrow=none;dashed=1;html=1;dashPattern=1 3;strokeWidth=2;entryX=1;entryY=1;entryDx=0;entryDy=0;exitX=0;exitY=1;exitDx=0;exitDy=0;" parent="1" source="19" target="8" edge="1">
                    <mxGeometry width="50" height="50" relative="1" as="geometry">
                        <mxPoint x="310" y="280" as="sourcePoint"/>
                        <mxPoint x="250" y="290" as="targetPoint"/>
                    </mxGeometry>
                </mxCell>
                <mxCell id="33" value="Undo Log 页&lt;br&gt;Change Buffer 页&lt;br&gt;索引页" style="shape=callout;whiteSpace=wrap;html=1;perimeter=calloutPerimeter;size=10;position=0.48;position2=0.5;" parent="1" vertex="1">
                    <mxGeometry x="590" y="170" width="110" height="80" as="geometry"/>
                </mxCell>
                <mxCell id="34" value="varchar 长度列表" style="rounded=0;whiteSpace=wrap;html=1;fillColor=#1ba1e2;fontColor=#ffffff;strokeColor=#006EAF;" parent="1" vertex="1">
                    <mxGeometry x="80" y="727.5" width="100" height="25" as="geometry"/>
                </mxCell>
                <mxCell id="35" value="NULL值列表" style="rounded=0;whiteSpace=wrap;html=1;fillColor=#e51400;fontColor=#ffffff;strokeColor=#B20000;" parent="1" vertex="1">
                    <mxGeometry x="180" y="727.5" width="80" height="25" as="geometry"/>
                </mxCell>
                <mxCell id="36" value="头信息" style="rounded=0;whiteSpace=wrap;html=1;fillColor=#f0a30a;fontColor=#000000;strokeColor=#BD7000;" parent="1" vertex="1">
                    <mxGeometry x="260" y="727.5" width="50" height="25" as="geometry"/>
                </mxCell>
                <mxCell id="37" value="" style="shape=curlyBracket;whiteSpace=wrap;html=1;rounded=1;labelPosition=left;verticalLabelPosition=middle;align=right;verticalAlign=middle;rotation=90;" parent="1" vertex="1">
                    <mxGeometry x="180" y="597.5" width="20" height="230" as="geometry"/>
                </mxCell>
                <mxCell id="38" value="额外信息" style="text;html=1;strokeColor=none;fillColor=none;align=center;verticalAlign=middle;whiteSpace=wrap;rounded=0;" parent="1" vertex="1">
                    <mxGeometry x="170" y="677.5" width="60" height="30" as="geometry"/>
                </mxCell>
                <mxCell id="39" value="主键" style="rounded=0;whiteSpace=wrap;html=1;" parent="1" vertex="1">
                    <mxGeometry x="310" y="727.5" width="50" height="25" as="geometry"/>
                </mxCell>
                <mxCell id="40" value="" style="shape=curlyBracket;whiteSpace=wrap;html=1;rounded=1;labelPosition=left;verticalLabelPosition=middle;align=right;verticalAlign=middle;rotation=90;" parent="1" vertex="1">
                    <mxGeometry x="451.5" y="560" width="20" height="305" as="geometry"/>
                </mxCell>
                <mxCell id="41" value="真实数据" style="text;html=1;strokeColor=none;fillColor=none;align=center;verticalAlign=middle;whiteSpace=wrap;rounded=0;" parent="1" vertex="1">
                    <mxGeometry x="434" y="677.5" width="60" height="30" as="geometry"/>
                </mxCell>
                <mxCell id="42" value="txr_id" style="rounded=0;whiteSpace=wrap;html=1;" parent="1" vertex="1">
                    <mxGeometry x="360" y="727.5" width="50" height="25" as="geometry"/>
                </mxCell>
                <mxCell id="43" value="roll_pointer" style="rounded=0;whiteSpace=wrap;html=1;" parent="1" vertex="1">
                    <mxGeometry x="410" y="727.5" width="70" height="25" as="geometry"/>
                </mxCell>
                <mxCell id="44" value="column_1" style="rounded=0;whiteSpace=wrap;html=1;" parent="1" vertex="1">
                    <mxGeometry x="480" y="727.5" width="70" height="25" as="geometry"/>
                </mxCell>
                <mxCell id="46" value="column_2" style="rounded=0;whiteSpace=wrap;html=1;" parent="1" vertex="1">
                    <mxGeometry x="550" y="727.5" width="70" height="25" as="geometry"/>
                </mxCell>
                <mxCell id="47" value="varchar 长度列表" style="rounded=0;whiteSpace=wrap;html=1;fillColor=#1ba1e2;fontColor=#ffffff;strokeColor=#006EAF;" parent="1" vertex="1">
                    <mxGeometry x="80" y="832.5" width="100" height="25" as="geometry"/>
                </mxCell>
                <mxCell id="48" value="NULL值列表" style="rounded=0;whiteSpace=wrap;html=1;fillColor=#e51400;fontColor=#ffffff;strokeColor=#B20000;" parent="1" vertex="1">
                    <mxGeometry x="180" y="832.5" width="80" height="25" as="geometry"/>
                </mxCell>
                <mxCell id="64" style="edgeStyle=none;html=1;exitX=0.5;exitY=1;exitDx=0;exitDy=0;entryX=0;entryY=0;entryDx=0;entryDy=0;" parent="1" source="49" target="58" edge="1">
                    <mxGeometry relative="1" as="geometry"/>
                </mxCell>
                <mxCell id="49" value="头信息" style="rounded=0;whiteSpace=wrap;html=1;fillColor=#f0a30a;fontColor=#000000;strokeColor=#BD7000;" parent="1" vertex="1">
                    <mxGeometry x="260" y="832.5" width="50" height="25" as="geometry"/>
                </mxCell>
                <mxCell id="50" value="主键" style="rounded=0;whiteSpace=wrap;html=1;" parent="1" vertex="1">
                    <mxGeometry x="310" y="832.5" width="50" height="25" as="geometry"/>
                </mxCell>
                <mxCell id="51" value="txr_id" style="rounded=0;whiteSpace=wrap;html=1;" parent="1" vertex="1">
                    <mxGeometry x="360" y="832.5" width="50" height="25" as="geometry"/>
                </mxCell>
                <mxCell id="52" value="roll_pointer" style="rounded=0;whiteSpace=wrap;html=1;" parent="1" vertex="1">
                    <mxGeometry x="410" y="832.5" width="70" height="25" as="geometry"/>
                </mxCell>
                <mxCell id="53" value="column_1" style="rounded=0;whiteSpace=wrap;html=1;" parent="1" vertex="1">
                    <mxGeometry x="480" y="832.5" width="70" height="25" as="geometry"/>
                </mxCell>
                <mxCell id="54" value="column_2" style="rounded=0;whiteSpace=wrap;html=1;" parent="1" vertex="1">
                    <mxGeometry x="550" y="832.5" width="70" height="25" as="geometry"/>
                </mxCell>
                <mxCell id="55" value="varchar 长度列表" style="rounded=0;whiteSpace=wrap;html=1;fillColor=#1ba1e2;fontColor=#ffffff;strokeColor=#006EAF;" parent="1" vertex="1">
                    <mxGeometry x="80" y="895" width="100" height="25" as="geometry"/>
                </mxCell>
                <mxCell id="56" value="NULL值列表" style="rounded=0;whiteSpace=wrap;html=1;fillColor=#e51400;fontColor=#ffffff;strokeColor=#B20000;" parent="1" vertex="1">
                    <mxGeometry x="180" y="895" width="80" height="25" as="geometry"/>
                </mxCell>
                <mxCell id="95" style="edgeStyle=none;html=1;exitX=0.5;exitY=1;exitDx=0;exitDy=0;entryX=1;entryY=0;entryDx=0;entryDy=0;" parent="1" source="57" target="94" edge="1">
                    <mxGeometry relative="1" as="geometry"/>
                </mxCell>
                <mxCell id="57" value="头信息" style="rounded=0;whiteSpace=wrap;html=1;fillColor=#f0a30a;fontColor=#000000;strokeColor=#BD7000;" parent="1" vertex="1">
                    <mxGeometry x="260" y="895" width="50" height="25" as="geometry"/>
                </mxCell>
                <mxCell id="58" value="主键" style="rounded=0;whiteSpace=wrap;html=1;" parent="1" vertex="1">
                    <mxGeometry x="310" y="895" width="50" height="25" as="geometry"/>
                </mxCell>
                <mxCell id="59" value="txr_id" style="rounded=0;whiteSpace=wrap;html=1;" parent="1" vertex="1">
                    <mxGeometry x="360" y="895" width="50" height="25" as="geometry"/>
                </mxCell>
                <mxCell id="60" value="roll_pointer" style="rounded=0;whiteSpace=wrap;html=1;" parent="1" vertex="1">
                    <mxGeometry x="410" y="895" width="70" height="25" as="geometry"/>
                </mxCell>
                <mxCell id="61" value="column_1" style="rounded=0;whiteSpace=wrap;html=1;" parent="1" vertex="1">
                    <mxGeometry x="480" y="895" width="70" height="25" as="geometry"/>
                </mxCell>
                <mxCell id="62" value="column_2" style="rounded=0;whiteSpace=wrap;html=1;" parent="1" vertex="1">
                    <mxGeometry x="550" y="895" width="70" height="25" as="geometry"/>
                </mxCell>
                <mxCell id="65" value="heap_no" style="rounded=0;whiteSpace=wrap;html=1;fillColor=#f0a30a;fontColor=#000000;strokeColor=#BD7000;" parent="1" vertex="1">
                    <mxGeometry x="180" y="792.5" width="60" height="20" as="geometry"/>
                </mxCell>
                <mxCell id="66" value="record_type" style="rounded=0;whiteSpace=wrap;html=1;fillColor=#f0a30a;fontColor=#000000;strokeColor=#BD7000;" parent="1" vertex="1">
                    <mxGeometry x="240" y="792.5" width="70" height="20" as="geometry"/>
                </mxCell>
                <mxCell id="68" style="edgeStyle=none;html=1;exitX=0.5;exitY=1;exitDx=0;exitDy=0;entryX=0;entryY=0;entryDx=0;entryDy=0;" parent="1" source="67" target="50" edge="1">
                    <mxGeometry relative="1" as="geometry"/>
                </mxCell>
                <mxCell id="67" value="next_record" style="rounded=0;whiteSpace=wrap;html=1;fillColor=#f0a30a;fontColor=#000000;strokeColor=#BD7000;" parent="1" vertex="1">
                    <mxGeometry x="310" y="792.5" width="70" height="20" as="geometry"/>
                </mxCell>
                <mxCell id="69" value="" style="endArrow=none;dashed=1;html=1;dashPattern=1 3;strokeWidth=2;entryX=0;entryY=1;entryDx=0;entryDy=0;exitX=0;exitY=0;exitDx=0;exitDy=0;" parent="1" source="65" target="36" edge="1">
                    <mxGeometry width="50" height="50" relative="1" as="geometry">
                        <mxPoint x="270" y="682.5" as="sourcePoint"/>
                        <mxPoint x="320" y="632.5" as="targetPoint"/>
                    </mxGeometry>
                </mxCell>
                <mxCell id="70" value="" style="endArrow=none;dashed=1;html=1;dashPattern=1 3;strokeWidth=2;entryX=0;entryY=1;entryDx=0;entryDy=0;exitX=1;exitY=0;exitDx=0;exitDy=0;" parent="1" source="67" target="39" edge="1">
                    <mxGeometry width="50" height="50" relative="1" as="geometry">
                        <mxPoint x="280" y="682.5" as="sourcePoint"/>
                        <mxPoint x="330" y="632.5" as="targetPoint"/>
                    </mxGeometry>
                </mxCell>
                <mxCell id="71" value="最小行" style="rounded=0;whiteSpace=wrap;html=1;verticalAlign=bottom;align=right;fillColor=#60a917;fontColor=#ffffff;strokeColor=#2D7600;" parent="1" vertex="1">
                    <mxGeometry x="80" y="632.5" width="310" height="45" as="geometry"/>
                </mxCell>
                <mxCell id="72" value="&amp;nbsp;" style="rounded=0;whiteSpace=wrap;html=1;fillColor=#1ba1e2;fontColor=#ffffff;strokeColor=#006EAF;" parent="1" vertex="1">
                    <mxGeometry x="80" y="632.5" width="30" height="25" as="geometry"/>
                </mxCell>
                <mxCell id="73" value="" style="rounded=0;whiteSpace=wrap;html=1;fillColor=#e51400;fontColor=#ffffff;strokeColor=#B20000;" parent="1" vertex="1">
                    <mxGeometry x="110" y="632.5" width="30" height="25" as="geometry"/>
                </mxCell>
                <mxCell id="77" value="Infimun" style="rounded=0;whiteSpace=wrap;html=1;fontStyle=1" parent="1" vertex="1">
                    <mxGeometry x="340" y="632.5" width="50" height="25" as="geometry"/>
                </mxCell>
                <mxCell id="84" value="heap_no" style="rounded=0;whiteSpace=wrap;html=1;fillColor=#f0a30a;fontColor=#000000;strokeColor=#BD7000;" parent="1" vertex="1">
                    <mxGeometry x="140" y="632.5" width="60" height="25" as="geometry"/>
                </mxCell>
                <mxCell id="85" value="record_type" style="rounded=0;whiteSpace=wrap;html=1;fillColor=#f0a30a;fontColor=#000000;strokeColor=#BD7000;" parent="1" vertex="1">
                    <mxGeometry x="200" y="632.5" width="70" height="25" as="geometry"/>
                </mxCell>
                <mxCell id="87" style="edgeStyle=none;html=1;exitX=0.5;exitY=1;exitDx=0;exitDy=0;entryX=0;entryY=0;entryDx=0;entryDy=0;" parent="1" source="86" target="39" edge="1">
                    <mxGeometry relative="1" as="geometry"/>
                </mxCell>
                <mxCell id="86" value="next_record" style="rounded=0;whiteSpace=wrap;html=1;fillColor=#f0a30a;fontColor=#000000;strokeColor=#BD7000;" parent="1" vertex="1">
                    <mxGeometry x="270" y="632.5" width="70" height="25" as="geometry"/>
                </mxCell>
                <mxCell id="88" value="最大行" style="rounded=0;whiteSpace=wrap;html=1;verticalAlign=bottom;align=right;fillColor=#60a917;fontColor=#ffffff;strokeColor=#2D7600;" parent="1" vertex="1">
                    <mxGeometry x="80" y="950" width="340" height="45" as="geometry"/>
                </mxCell>
                <mxCell id="89" value="&amp;nbsp;" style="rounded=0;whiteSpace=wrap;html=1;fillColor=#1ba1e2;fontColor=#ffffff;strokeColor=#006EAF;" parent="1" vertex="1">
                    <mxGeometry x="80" y="950" width="30" height="25" as="geometry"/>
                </mxCell>
                <mxCell id="90" value="" style="rounded=0;whiteSpace=wrap;html=1;fillColor=#e51400;fontColor=#ffffff;strokeColor=#B20000;" parent="1" vertex="1">
                    <mxGeometry x="110" y="950" width="30" height="25" as="geometry"/>
                </mxCell>
                <mxCell id="91" value="Supermen" style="rounded=0;whiteSpace=wrap;html=1;fontStyle=1" parent="1" vertex="1">
                    <mxGeometry x="350" y="950" width="70" height="25" as="geometry"/>
                </mxCell>
                <mxCell id="92" value="heap_no" style="rounded=0;whiteSpace=wrap;html=1;fillColor=#f0a30a;fontColor=#000000;strokeColor=#BD7000;" parent="1" vertex="1">
                    <mxGeometry x="140" y="950" width="60" height="25" as="geometry"/>
                </mxCell>
                <mxCell id="93" value="record_type" style="rounded=0;whiteSpace=wrap;html=1;fillColor=#f0a30a;fontColor=#000000;strokeColor=#BD7000;" parent="1" vertex="1">
                    <mxGeometry x="200" y="950" width="70" height="25" as="geometry"/>
                </mxCell>
                <mxCell id="94" value="next_record:0" style="rounded=0;whiteSpace=wrap;html=1;fillColor=#f0a30a;fontColor=#000000;strokeColor=#BD7000;" parent="1" vertex="1">
                    <mxGeometry x="270" y="950" width="80" height="25" as="geometry"/>
                </mxCell>
                <mxCell id="96" value="最小行+最大行" style="rounded=0;whiteSpace=wrap;html=1;fillColor=#60a917;fontColor=#ffffff;strokeColor=#2D7600;" parent="1" vertex="1">
                    <mxGeometry x="590" y="323.75" width="100" height="22.5" as="geometry"/>
                </mxCell>
                <mxCell id="97" value="数据行为单向链表" style="shape=note;whiteSpace=wrap;html=1;backgroundOutline=1;darkOpacity=0.05;size=14;fillColor=#76608a;fontColor=#ffffff;strokeColor=#432D57;" parent="1" vertex="1">
                    <mxGeometry x="30" y="570" width="130" height="30" as="geometry"/>
                </mxCell>
                <mxCell id="98" value="页目录" style="rounded=0;whiteSpace=wrap;html=1;fillColor=#1ba1e2;fontColor=#ffffff;strokeColor=#006EAF;" parent="1" vertex="1">
                    <mxGeometry x="590" y="410" width="100" height="25" as="geometry"/>
                </mxCell>
                <mxCell id="99" value="页目录" style="rounded=0;whiteSpace=wrap;html=1;fillColor=#1ba1e2;fontColor=#ffffff;strokeColor=#006EAF;verticalAlign=top;" parent="1" vertex="1">
                    <mxGeometry x="459" y="530" width="350" height="70" as="geometry"/>
                </mxCell>
                <mxCell id="100" value="槽&lt;br&gt;(每八行创建一个槽，记录首行地址)" style="rounded=0;whiteSpace=wrap;html=1;fillColor=#60a917;fontColor=#ffffff;strokeColor=#2D7600;" parent="1" vertex="1">
                    <mxGeometry x="589" y="560" width="210" height="30" as="geometry"/>
                </mxCell>
                <mxCell id="101" value="槽" style="rounded=0;whiteSpace=wrap;html=1;fillColor=#60a917;fontColor=#ffffff;strokeColor=#2D7600;" parent="1" vertex="1">
                    <mxGeometry x="529" y="560" width="50" height="30" as="geometry"/>
                </mxCell>
                <mxCell id="102" value="槽" style="rounded=0;whiteSpace=wrap;html=1;fillColor=#60a917;fontColor=#ffffff;strokeColor=#2D7600;" parent="1" vertex="1">
                    <mxGeometry x="469" y="560" width="50" height="30" as="geometry"/>
                </mxCell>
                <mxCell id="104" value="Page Header" style="rounded=0;whiteSpace=wrap;html=1;fillColor=#d5e8d4;strokeColor=#82b366;" parent="1" vertex="1">
                    <mxGeometry x="590" y="297.5" width="100" height="22.5" as="geometry"/>
                </mxCell>
            </root>
        </mxGraphModel>
    </diagram>
</mxfile>